<svg width="300" height="300" viewBox="0 0 300 300" fill="none" xmlns="http://www.w3.org/2000/svg">
<g clip-path="url(#clip0_785_7034)">
<path d="M263.982 141.899C255.218 122.563 237.025 110.83 223.271 95.4793C210.453 81.1747 204.986 62.1103 192.278 47.9239C176.389 30.1867 150.7 26.2825 128.164 29.4643C121.151 30.4543 114.278 32.1253 107.825 34.3201C101.344 36.5239 95.016 39.3127 89.031 42.6373C69.1932 53.6551 54.3756 69.5275 45.5298 90.4315C38.0016 108.22 35.0778 127.845 38.1462 146.981C43.2018 178.51 62.916 206.988 89.5944 224.534C116.273 242.081 149.392 248.928 181.134 245.451C206.789 242.641 232.49 232.72 249.869 213.64C267.247 194.559 274.637 165.405 263.982 141.899Z" fill="#FFF3B0"/>
<path d="M183.884 47.7864C171.966 46.0854 172.508 57.918 172.508 57.918L178.533 58.5918C177.239 55.3002 179.207 51.8334 183.08 52.0254C186.953 52.2174 186.262 56.9922 184.206 58.9476C182.405 60.6618 179.647 63.0204 179.647 63.0204L178.268 68.904L183.86 70.0284L184.397 64.44C184.397 64.44 187.426 62.9952 189.963 59.7408C191.206 58.146 193.104 49.1028 183.884 47.7864Z" fill="#D35D57"/>
<path d="M180.574 71.9096C178.692 71.531 176.943 72.3398 176.666 73.715C176.389 75.0908 177.691 76.5122 179.572 76.8908C181.454 77.2694 183.204 76.4606 183.48 75.0854C183.756 73.7102 182.455 72.2882 180.574 71.9096Z" fill="#D35D57"/>
<path d="M196.551 74.5339C190.324 70.2589 187.334 77.0623 187.334 77.0623L190.534 79.1185C190.723 76.9075 192.795 75.5065 194.919 76.6927C197.043 77.8789 195.324 80.3713 193.624 80.8981C192.134 81.3601 189.927 81.9181 189.927 81.9181L187.514 84.8419L190.345 87.0313L192.202 84.0391C192.202 84.0391 194.307 84.0703 196.64 82.9465C197.783 82.3975 201.368 77.8417 196.551 74.5339Z" fill="#D35D57"/>
<path d="M187.972 87.1742C187.02 86.4374 185.811 86.405 185.272 87.101C184.734 87.7976 185.07 88.9592 186.022 89.6954C186.975 90.4322 188.183 90.4646 188.722 89.7686C189.261 89.0726 188.925 87.911 187.972 87.1742Z" fill="#D35D57"/>
<mask id="mask0_785_7034" style="mask-type:luminance" maskUnits="userSpaceOnUse" x="0" y="0" width="300" height="300">
<path d="M300 0H0V300H300V0Z" fill="white"/>
</mask>
<g mask="url(#mask0_785_7034)">
<path d="M114.25 208.717L114.068 382.301H138.998L148.07 205.707L114.25 208.717Z" fill="#4D52A8"/>
<path d="M177.343 207.978L187.718 382.301H161.011L141.716 202.893L177.343 207.978Z" fill="#4D52A8"/>
<path d="M145.422 226.412C145.319 226.412 145.234 226.331 145.231 226.227L144.532 203.483C144.529 203.377 144.612 203.288 144.718 203.285C144.832 203.289 144.912 203.364 144.915 203.471L145.613 226.215C145.616 226.32 145.534 226.409 145.428 226.412C145.426 226.412 145.424 226.412 145.422 226.412Z" fill="#383D84"/>
<path d="M145.309 222.721H142.38C142.277 222.721 142.193 222.641 142.188 222.538L141.524 206.977C141.519 206.871 141.602 206.782 141.707 206.777C141.813 206.779 141.901 206.855 141.906 206.96L142.562 222.339H145.308C145.413 222.339 145.5 222.425 145.5 222.53C145.5 222.635 145.415 222.721 145.309 222.721Z" fill="#383D84"/>
<path d="M174.597 221.187C172.971 221.187 171.497 220.652 170.201 219.592C165.347 215.618 164.557 205.708 164.526 205.288C164.518 205.183 164.597 205.09 164.702 205.083C164.803 205.063 164.899 205.154 164.907 205.259C164.914 205.361 165.716 215.427 170.443 219.296C171.908 220.496 173.62 220.981 175.524 220.745C175.64 220.735 175.725 220.807 175.738 220.911C175.751 221.017 175.676 221.111 175.572 221.125C175.241 221.166 174.916 221.187 174.597 221.187Z" fill="#383D84"/>
<path d="M115.296 221.725C115.244 221.725 115.19 221.702 115.152 221.659C115.083 221.579 115.092 221.458 115.171 221.39C115.223 221.345 120.272 216.825 119.296 206.188C119.286 206.084 119.364 205.99 119.469 205.981C119.575 205.964 119.667 206.048 119.677 206.154C120.672 217 115.475 221.633 115.422 221.679C115.385 221.709 115.341 221.725 115.296 221.725Z" fill="#383D84"/>
<path d="M193.974 178.508C190.457 178.508 187.179 176.286 185.999 172.768L167.733 118.3C166.256 113.895 168.628 109.126 173.033 107.649C177.44 106.168 182.208 108.546 183.684 112.95L201.951 167.418C203.429 171.823 201.056 176.591 196.651 178.069C195.763 178.366 194.861 178.508 193.974 178.508Z" fill="#EFAD9C"/>
<path d="M186.534 166.405L208.956 118.027C210.217 115.308 213.443 114.125 216.162 115.385C218.695 116.559 219.894 119.438 219.029 122.025L202.172 172.612C200.701 177.027 195.93 179.413 191.514 177.942C187.099 176.471 184.713 171.7 186.184 167.284C186.285 166.984 186.404 166.686 186.534 166.405Z" fill="#EFAD9C"/>
<path d="M208.816 120.808C207.888 118.003 211.119 114.683 213.754 113.233C218.465 110.642 230.068 109.262 230.631 110.209C231.193 111.156 224.374 114.229 224.374 114.229C224.374 114.229 229.518 114.088 231.39 114.845C231.39 114.845 236.509 108.866 237.601 109.197C238.693 109.527 236.559 113.246 236.559 113.246C236.559 113.246 241.543 109.932 242.242 110.6C242.94 111.267 235.881 117.462 234.251 118.458C232.621 119.454 223.003 123.726 217.701 124.205C212.4 124.682 209.707 123.504 208.816 120.808Z" fill="#EFAD9C"/>
<path d="M227.971 120.965C227.926 120.965 227.881 120.946 227.85 120.909C227.794 120.842 227.803 120.742 227.869 120.686C229.343 119.447 231.657 117.258 231.595 116.664C231.592 116.636 231.583 116.623 231.559 116.61C230.947 116.287 227.497 117.99 225.465 119.14L225.423 119.164L225.373 119.16C225.35 119.157 222.978 118.953 220.902 119.453C220.814 119.474 220.732 119.42 220.711 119.336C220.691 119.25 220.743 119.165 220.828 119.145C222.787 118.674 224.995 118.814 225.352 118.841C226.346 118.279 230.779 115.832 231.707 116.33C231.825 116.393 231.895 116.497 231.909 116.63C232.008 117.566 228.732 120.373 228.073 120.927C228.044 120.953 228.008 120.965 227.971 120.965Z" fill="#B56757"/>
<path d="M230.036 116.903C230.003 116.903 229.971 116.893 229.943 116.872C229.872 116.821 229.857 116.722 229.908 116.651L231.162 114.944C231.214 114.873 231.314 114.858 231.383 114.91C231.453 114.961 231.469 115.06 231.417 115.13L230.164 116.838C230.132 116.881 230.084 116.903 230.036 116.903Z" fill="#B56757"/>
<path d="M230.663 120.041C230.608 120.041 230.556 120.013 230.526 119.963C230.482 119.886 230.508 119.79 230.584 119.747C231.447 119.245 233.756 117.854 234.072 117.445C234.462 116.937 236.278 113.366 236.297 113.331C236.336 113.252 236.432 113.222 236.509 113.262C236.587 113.301 236.619 113.397 236.578 113.474C236.503 113.622 234.73 117.107 234.322 117.638C233.911 118.172 231.065 119.833 230.742 120.02C230.718 120.035 230.69 120.041 230.663 120.041Z" fill="#B56757"/>
<path d="M187.273 164.151C187.229 164.162 187.182 164.157 187.139 164.135C187.045 164.087 187.008 163.971 187.057 163.878L192.161 153.975C192.21 153.881 192.326 153.845 192.418 153.892C192.512 153.941 192.55 154.056 192.501 154.149L187.397 164.052C187.37 164.104 187.324 164.138 187.273 164.151Z" fill="#B56757"/>
<path d="M168.475 105.292C181.039 103.69 184.082 106.798 185.75 111.261C187.418 115.724 195.494 142.858 195.494 142.858C195.494 142.858 201.39 128.523 202.843 127.433C204.297 126.343 216.047 130.663 216.935 133.045C217.823 135.428 207.769 167.569 204.055 174.03C200.34 180.49 189.697 182.832 184.843 174.837C179.989 166.842 173.656 145.488 173.656 145.488L168.475 105.292Z" fill="#7EC1AE"/>
<path d="M65.3823 88.2426L113.574 69.3222C116.364 68.2266 119.514 69.6006 120.61 72.3912C121.628 74.9838 120.513 77.8872 118.111 79.164L72.4263 103.522C68.3199 105.712 63.2157 104.158 61.0257 100.051C58.8363 95.9442 60.3903 90.84 64.4967 88.6506C64.7853 88.497 65.0859 88.3602 65.3823 88.2426Z" fill="#EFAD9C"/>
<path d="M112.654 78.3669C112.654 78.3669 121.544 91.0677 123.167 91.1481C124.79 91.2279 120.782 81.5973 120.782 81.5973C120.782 81.5973 145.234 77.5575 145.204 76.1349C145.175 74.7123 134.362 76.0191 134.362 76.0191C134.362 76.0191 146.164 72.9729 145.834 71.5437C145.536 70.2483 133.081 72.6903 133.081 72.6903C133.081 72.6903 145.015 68.2035 144.028 67.2903C143.041 66.3765 131.881 69.6135 131.881 69.6135C131.881 69.6135 140.94 64.8453 140.219 64.2783C139.498 63.7113 129.385 66.8091 129.385 66.8091C124.378 67.4829 118.415 67.7481 116.103 68.3763C106.918 70.8711 112.654 78.3669 112.654 78.3669Z" fill="#EFAD9C"/>
<path d="M59.6235 96.4482C59.5833 95.4144 59.7345 94.3566 60.0999 93.3222C61.6473 88.941 66.4533 86.6442 70.8339 88.1916L126.125 107.722C130.507 109.268 132.804 114.077 131.256 118.456C129.708 122.837 124.902 125.134 120.522 123.587L65.2305 104.056C61.8837 102.874 59.7531 99.7902 59.6235 96.4482Z" fill="#EFAD9C"/>
<path d="M76.217 100.827C76.2146 100.771 76.2374 100.714 76.2836 100.674L84.3494 93.7568C84.4298 93.6884 84.5504 93.6974 84.6194 93.7778C84.6866 93.8576 84.6788 93.9788 84.5984 94.0478L76.5326 100.965C76.4522 101.033 76.3316 101.024 76.2626 100.944C76.2338 100.911 76.2188 100.869 76.217 100.827Z" fill="#B56757"/>
<path d="M126.855 104.515L93.3895 94.7432C93.3895 94.7432 109.864 86.4236 110.618 84.8012C111.372 83.1788 106.795 73.0034 103.565 72.1418C100.335 71.2802 67.5739 84.4808 61.1137 88.8368C54.6529 93.1928 57.8833 102.452 64.1827 105.292C70.4821 108.133 123.781 129.695 123.781 129.695L126.855 104.515Z" fill="#7EC1AE"/>
<path d="M118.744 144.266C116.311 163.52 114.107 192.296 113.423 215.723C135.329 217.621 156.952 217.392 178.263 214.85C176.474 194.52 175.921 166.237 177.77 144.081L168.473 105.293L144.373 107.579L126.854 104.516L118.744 144.266Z" fill="#E2817F"/>
<path d="M164.32 136.303C153.666 138.932 142.477 139.433 131.635 137.706C128.529 137.211 125.454 136.535 122.423 135.694C120.852 135.259 120.181 137.699 121.75 138.135C132.657 141.159 144.165 141.996 155.391 140.536C158.625 140.116 161.828 139.525 164.994 138.744C166.573 138.354 165.904 135.913 164.32 136.303Z" fill="#D35D57"/>
<path d="M164.32 142.721C153.666 145.35 142.477 145.851 131.635 144.124C128.529 143.629 125.454 142.953 122.423 142.112C120.852 141.677 120.181 144.117 121.75 144.553C132.657 147.577 144.165 148.414 155.391 146.954C158.625 146.534 161.828 145.943 164.994 145.162C166.573 144.772 165.904 142.331 164.32 142.721Z" fill="#D35D57"/>
<path d="M164.32 149.137C153.666 151.766 142.477 152.267 131.635 150.54C128.529 150.045 125.454 149.369 122.423 148.528C120.852 148.093 120.181 150.533 121.75 150.969C132.657 153.993 144.165 154.83 155.391 153.37C158.625 152.95 161.828 152.358 164.994 151.578C166.573 151.188 165.904 148.747 164.32 149.137Z" fill="#D35D57"/>
<path d="M124.508 209.375C124.508 209.375 124.763 216.684 124.185 217.276C123.606 217.868 111.587 217.195 111.062 216.468C110.537 215.742 110.86 209.584 110.86 209.584L124.508 209.375Z" fill="#488974"/>
<path d="M134.084 105.78C127.128 147.948 126.043 209.403 125.155 210.453C124.267 211.503 111.991 211.907 110.537 210.453C109.084 209 117.199 135.464 119.588 126.789C121.977 118.113 126.855 104.516 126.855 104.516L134.084 105.78Z" fill="#7EC1AE"/>
<path d="M134.084 105.78C132.621 115.536 130.699 130.13 130.699 130.13C122.113 118.814 130.919 105.227 130.919 105.227L134.084 105.78Z" fill="#A4D8C8"/>
<path d="M182.613 209.281L158.789 210.493C158.789 210.493 159.072 216.953 159.839 217.478C160.606 218.003 181.28 217.807 182.169 216.976C183.057 216.146 182.613 209.281 182.613 209.281Z" fill="#488974"/>
<path d="M157.662 106.318C149.857 173.055 156.003 209.888 157.618 211.018C159.233 212.149 182.33 212.23 183.541 210.292C184.752 208.354 179.18 180.573 178.776 172.74C178.373 164.906 178.263 142.393 178.263 142.393L169.104 105.217L157.662 106.318Z" fill="#7EC1AE"/>
<path d="M169.263 137.434C168.466 137.932 167.56 138.156 166.621 138.078C165.61 137.994 164.8 137.485 164 136.903C162.651 135.921 160.629 134.914 159.209 136.384C158.643 136.971 159.537 137.866 160.104 137.279C160.638 136.725 161.508 136.875 162.133 137.19C163.01 137.631 163.712 138.352 164.592 138.789C166.273 139.624 168.31 139.519 169.901 138.526C170.59 138.096 169.956 137.001 169.263 137.434Z" fill="white"/>
<path d="M169.263 140.477C168.466 140.975 167.56 141.199 166.621 141.121C165.61 141.037 164.8 140.528 164 139.946C162.651 138.964 160.629 137.957 159.209 139.427C158.643 140.014 159.537 140.909 160.104 140.322C160.638 139.768 161.508 139.918 162.133 140.233C163.01 140.674 163.712 141.395 164.592 141.832C166.273 142.667 168.31 142.562 169.901 141.569C170.59 141.14 169.956 140.045 169.263 140.477Z" fill="white"/>
<path d="M161.441 105.953L157.663 106.317C157.223 110.828 155.339 130.128 155.339 130.128C155.339 130.128 166.394 119.196 161.441 105.953Z" fill="#A4D8C8"/>
<path d="M119.42 127.001C119.334 127.001 119.264 126.934 119.261 126.847C119.081 119.597 121.042 112.181 124.783 105.967C124.828 105.892 124.925 105.869 125 105.913C125.075 105.958 125.099 106.055 125.054 106.13C121.344 112.294 119.399 119.648 119.578 126.839C119.58 126.926 119.51 126.999 119.423 127.001C119.422 127.001 119.421 127.001 119.42 127.001Z" fill="#488974"/>
<path d="M177.289 157.651C177.22 157.651 177.157 157.606 177.137 157.537C172.756 142.295 171.314 125.903 172.969 110.13C172.977 110.044 173.055 109.979 173.142 109.989C173.229 109.999 173.292 110.076 173.283 110.163C171.633 125.895 173.071 142.246 177.44 157.449C177.464 157.533 177.416 157.62 177.332 157.644C177.317 157.649 177.303 157.651 177.289 157.651Z" fill="#488974"/>
<path d="M196.753 157.795H196.752C196.665 157.794 196.594 157.723 196.594 157.636C196.614 152.948 196.225 148.228 195.441 143.607C195.426 143.521 195.484 143.439 195.57 143.425C195.655 143.408 195.738 143.467 195.753 143.554C196.54 148.193 196.93 152.931 196.911 157.636C196.911 157.724 196.84 157.795 196.753 157.795Z" fill="#488974"/>
<path d="M92.3043 94.7079C92.2929 94.7079 92.2815 94.7067 92.2701 94.7043C87.8385 93.7251 83.3031 93.0141 78.7899 92.5917C78.7029 92.5839 78.6393 92.5065 78.6471 92.4195C78.6549 92.3325 78.7347 92.2653 78.8193 92.2767C83.3463 92.7003 87.8943 93.4137 92.3379 94.3959C92.4237 94.4151 92.4771 94.4991 92.4585 94.5843C92.4423 94.6581 92.3769 94.7079 92.3043 94.7079Z" fill="#488974"/>
<path d="M86.8103 93.5658C86.7821 93.5658 86.7533 93.5586 86.7275 93.5424L82.6985 91.0686C82.6241 91.023 82.6007 90.9258 82.6463 90.8514C82.6913 90.777 82.7891 90.7524 82.8635 90.7992L86.8925 93.273C86.9669 93.3186 86.9903 93.4158 86.9447 93.4902C86.9153 93.5388 86.8637 93.5658 86.8103 93.5658Z" fill="#488974"/>
<path d="M198.955 156.252C198.887 156.252 198.824 156.207 198.803 156.139C198.171 154.026 197.349 151.952 196.359 149.977C196.32 149.898 196.352 149.803 196.43 149.764C196.508 149.726 196.603 149.758 196.643 149.835C197.64 151.828 198.468 153.918 199.106 156.049C199.131 156.132 199.084 156.22 199 156.245C198.985 156.25 198.969 156.252 198.955 156.252Z" fill="#488974"/>
<path d="M153.723 91.6191L154.962 109.358C154.962 109.358 144.84 114.401 138.136 110.474L138.37 97.0113L153.723 91.6191Z" fill="#EFAD9C"/>
<path d="M138.218 105.778C147.116 105.023 150.244 100.166 150.244 100.166L138.301 101.008L138.218 105.778Z" fill="#AD6253"/>
<path d="M156.528 106.426L144.374 107.578L136.544 106.209C136.355 117.557 153.056 117.824 156.528 106.426Z" fill="#EFAD9C"/>
<path d="M154.61 96.0261C157.862 94.4127 160.486 91.5705 161.835 88.2003C163.129 84.9693 163.393 81.5811 163.501 78.1029C164.367 77.7753 164.82 76.7697 164.795 75.8439C164.769 74.9181 164.367 74.0499 163.972 73.2123C165.064 73.1913 165.966 72.2085 166.185 71.1387C166.403 70.0683 166.068 68.9571 165.576 67.9821C164.433 65.7183 162.392 63.9225 160.001 63.0759C160.125 59.5449 158.433 55.9821 155.854 53.5665C154.722 52.5063 153.347 51.6441 151.815 51.4005C150.284 51.1569 148.589 51.6177 147.599 52.8111C145.497 50.8809 142.539 49.9191 139.704 50.2437C136.868 50.5683 134.204 52.1733 132.593 54.5283C131.181 54.3435 129.926 54.6387 128.605 55.1703C127.284 55.7019 126.126 56.7069 125.574 58.0191C125.022 59.3313 125.145 60.9471 126.028 62.0637C124.355 63.4323 123.161 65.7309 122.976 67.8843C122.791 70.0377 123.512 72.2547 124.928 73.8879C125.569 77.5677 126.882 81.0465 128.523 84.4017C132.715 92.9697 145.145 94.8507 154.61 96.0261Z" fill="#162A45"/>
<path d="M135.769 62.0589C152.332 60.0045 161.028 67.9719 159.625 83.4435C158.509 95.7603 151.358 103.423 139.713 103.461C128.987 103.495 127.246 94.7408 127.101 85.5578C126.895 72.4652 125.934 63.2787 135.769 62.0589Z" fill="#EFAD9C"/>
<path d="M126.999 69.2247C127.101 69.6555 127.479 69.9789 127.896 70.1271C128.313 70.2753 128.767 70.2735 129.209 70.2513C132.084 70.1061 134.912 69.1209 137.255 67.4469C136.827 68.1177 137.209 69.0681 137.868 69.5133C138.528 69.9585 139.367 70.0227 140.162 70.0341C142.703 70.0713 145.25 69.7143 147.683 68.9799C147.269 69.8397 147.884 70.9137 148.745 71.3241C149.607 71.7345 150.613 71.6541 151.559 71.5281C151.091 73.0995 151.337 74.8983 151.964 76.4133C152.592 77.9283 153.753 79.2159 155.195 79.9959C154.76 81.6291 155.006 83.4327 155.861 84.8907C156.717 86.3487 158.171 87.4425 159.809 87.8601C160.283 83.4813 160.722 79.0665 159.778 74.7645C158.835 70.4625 156.643 66.3051 153.087 63.7071C149.95 61.4157 145.995 60.4929 142.115 60.3045C138.863 60.1467 135.505 60.4923 132.6 61.9629C129.698 63.4335 126.251 66.0567 126.999 69.2247Z" fill="#162A45"/>
<path d="M127.831 80.1306C127.831 80.1306 131.624 78.3144 134.209 78.051C132.335 76.5768 129.037 78.4914 127.831 80.1306Z" fill="#162A45"/>
<path d="M147.215 80.2428C147.215 80.2428 143.493 78.2856 140.92 77.925C142.848 76.5228 146.072 78.5598 147.215 80.2428Z" fill="#162A45"/>
<path d="M132.921 85.3409C132.921 86.1623 132.381 86.8283 131.714 86.8283C131.047 86.8283 130.507 86.1623 130.507 85.3409C130.507 84.5195 131.047 83.8535 131.714 83.8535C132.381 83.8535 132.921 84.5195 132.921 85.3409Z" fill="#162A45"/>
<path d="M131.714 84.8011C131.714 85.0657 131.545 85.2805 131.335 85.2805C131.126 85.2805 130.956 85.0657 130.956 84.8011C130.956 84.5365 131.126 84.3223 131.335 84.3223C131.545 84.3217 131.714 84.5365 131.714 84.8011Z" fill="white"/>
<path d="M144.601 85.3409C144.601 86.1623 144.06 86.8283 143.394 86.8283C142.727 86.8283 142.187 86.1623 142.187 85.3409C142.187 84.5195 142.727 83.8535 143.394 83.8535C144.06 83.8535 144.601 84.5195 144.601 85.3409Z" fill="#162A45"/>
<path d="M143.394 84.8011C143.394 85.0657 143.224 85.2805 143.015 85.2805C142.806 85.2805 142.636 85.0657 142.636 84.8011C142.636 84.5365 142.806 84.3223 143.015 84.3223C143.224 84.3217 143.394 84.5365 143.394 84.8011Z" fill="white"/>
<path d="M136.281 90.819C136.257 90.819 136.235 90.8166 136.211 90.8124C135.501 90.681 134.999 90.3852 134.759 89.958C134.624 89.7174 134.507 89.3124 134.719 88.7526C134.84 88.4346 135.084 88.0272 135.342 87.5958C135.579 87.2016 135.824 86.7936 135.922 86.5284C135.996 86.331 136.215 86.2296 136.414 86.3034C136.612 86.3772 136.713 86.5974 136.639 86.7954C136.516 87.126 136.264 87.5454 135.998 87.9888C135.768 88.3722 135.531 88.7682 135.434 89.0232C135.346 89.2548 135.344 89.4378 135.425 89.5824C135.548 89.8026 135.877 89.9724 136.35 90.0606C136.558 90.0984 136.695 90.2988 136.656 90.5064C136.623 90.69 136.461 90.819 136.281 90.819Z" fill="#AD6253"/>
<path d="M141.114 93.3712C139.549 92.8696 137.868 92.8096 136.254 93.199C136.015 93.2566 135.935 93.4744 135.979 93.6598C136.027 93.856 136.206 94.0222 136.459 93.9628C137.917 93.6112 139.452 93.6688 140.896 94.132C140.94 94.1458 140.982 94.1524 141.022 94.1524C141.109 94.1524 141.189 94.1218 141.254 94.0624C141.36 93.9658 141.41 93.8038 141.378 93.658C141.349 93.5194 141.252 93.4156 141.114 93.3712Z" fill="#944A3B"/>
<path d="M156.872 85.7349C155.891 88.1613 156.596 90.5025 158.353 91.2141C160.11 91.9257 162.33 90.5349 163.311 88.1085C164.293 85.6821 163.665 83.1381 161.908 82.4265C160.151 81.7149 157.854 83.3085 156.872 85.7349Z" fill="#EFAD9C"/>
<path d="M158.566 88.8641C158.409 88.8641 158.262 88.7669 158.206 88.6103C158.135 88.4117 158.238 88.1927 158.438 88.1219C158.828 87.9821 159.261 87.6119 159.286 87.1283C159.296 86.9387 159.225 86.7527 159.142 86.5373C159.06 86.3243 158.968 86.0837 158.951 85.8077C158.918 85.3013 159.116 84.7733 159.481 84.3947C159.945 83.9123 160.553 83.6765 161.106 83.7671C162.028 83.9165 162.51 84.8141 162.51 85.6229C162.51 85.8341 162.339 86.0051 162.128 86.0051C161.916 86.0051 161.745 85.8341 161.745 85.6229C161.745 85.1495 161.479 84.6017 160.985 84.5213C160.62 84.4619 160.247 84.7019 160.033 84.9245C159.815 85.1507 159.696 85.4627 159.715 85.7597C159.725 85.9187 159.789 86.0861 159.857 86.2631C159.957 86.5223 160.069 86.8157 160.05 87.1685C160.007 88.0055 159.339 88.6121 158.696 88.8413C158.652 88.8569 158.609 88.8641 158.566 88.8641Z" fill="#AD6253"/>
</g>
</g>
<defs>
<clipPath id="clip0_785_7034">
<rect width="300" height="300" fill="white"/>
</clipPath>
</defs>
</svg>
